<?xml version="1.0" encoding="utf-8"?>
<!-- Generator: Adobe Illustrator 21.0.2, SVG Export Plug-In . SVG Version: 6.00 Build 0)  -->
<svg version="1.1" id="Layer_1" xmlns="http://www.w3.org/2000/svg" xmlns:xlink="http://www.w3.org/1999/xlink" x="0px" y="0px"
	 viewBox="0 0 1000.6 326.8" style="enable-background:new 0 0 1000.6 326.8;" xml:space="preserve">
<style type="text/css">
	.st0{fill:#757575;}
</style>
<path class="st0" d="M276.6,136.2h33.9l4.3-30.7h-33.9L298.1,0h-47.5L199,326.8h47.5L276.6,136.2z M74.9,292.9
	c126,0,169.9-283.1,44.6-282.8C-5.8,10.5-51.4,292.9,74.9,292.9z M114.5,39.5c58.3,0,22.2,224-35.1,225.1
	C22.4,265.8,57.7,39.5,114.5,39.5z"/>
<path class="st0" d="M883.8,328h47.5l31.1-197.4h33.9l4.3-30.7h-33.9l16.1-98.7h-47.5L883.8,328z M728.5,280.3
	c-28.2,0-50.5-26.6-45.7-54.5L717.1,8h183.2l-8.2,33.5H761.8L726,249.7h169.6l-4.3,30.7H728.5V280.3z"/>
<path class="st0" d="M626.4,109.8h33.9l4.3-30.7h-33.9l12.9-78.2h-47.5l-40.8,251.4h47.5L626.4,109.8z M373.4,4.6l-23.7,132
	c-4.8,27.9,17.2,56.4,45.4,56.4h130.2L554.2,4.6H373.4z M358.2,207.7l-9.7,57.8c-4.8,27.9,18.3,58,46.5,58h195.3l7.2-32.4H395.1
	l10.6-83.4L358.2,207.7L358.2,207.7z M503.6,33.6l-22.5,126.8h-88.2l23.9-126.8C416.8,33.6,503.6,33.6,503.6,33.6z"/>
</svg>
