<?xml version="1.0" encoding="utf-8"?>
<!-- Generator: Adobe Illustrator 21.0.2, SVG Export Plug-In . SVG Version: 6.00 Build 0)  -->
<svg version="1.1" id="Layer_1" xmlns="http://www.w3.org/2000/svg" xmlns:xlink="http://www.w3.org/1999/xlink" x="0px" y="0px"
	 viewBox="0 0 622.9 109.4" style="enable-background:new 0 0 622.9 109.4;" xml:space="preserve">
<style type="text/css">
	.st0{fill:#757575;}
</style>
<g>
	<polygon class="st0" points="63.1,44.3 63.2,44.2 63.2,44.2 	"/>
	<path class="st0" d="M122.1,71c-0.9-0.7-2-2-3.2-3.7c-1.2-1.8-2.5-4-4-6.8l-14.4-30.2L86.1,0h-1h-1l-8.4,17.7l-8.4,17.7h4.8h4.8v1
		v1c0,0-1,0-2.3,0.2s-2.9,0.5-4.2,1.2l-3.6,2.7l-3.6,2.7l-1,2.1l-1,2.1l-2.4,5.2l-2.5,5.2c-1.3,2.5-2.5,4.5-3.6,6.2s-2.1,3-3,4
		l2.3,2.9l2.3,2.9l0,0l0,0h12.6h12.6v-1v-1c-2.2-0.1-3.4-0.3-4.2-0.4c-0.8-0.2-1.3-0.4-2-0.7c-0.4-0.2-0.9-0.5-1.3-0.9
		s-0.7-0.9-0.8-1.5c0-0.4,0-0.6,0-0.9s0.1-0.6,0.2-1c0.1-0.2,0.2-0.7,0.5-1.4c0.3-0.7,0.7-1.6,1.3-2.8l2.1-4.7l2.1-4.7H85h7.9
		l2.3,4.7l2.3,4.7c0.6,1.2,1,2.1,1.3,2.7c0.3,0.7,0.5,1.1,0.5,1.2c0.1,0.3,0.2,0.8,0.3,1.2c0.1,0.4,0.1,0.8,0,1.1
		c-0.1,0.6-0.3,1-0.6,1.4c-0.3,0.4-0.7,0.8-1.2,1.1c-0.7,0.4-1,0.5-1.7,0.6s-1.6,0.1-3.3,0.1H92h-1.3v1v1h18.9H128v-1v-1
		c-1.3-0.1-2.4-0.3-3.4-0.6C123.6,72,122.8,71.5,122.1,71 M78.4,51l3.2-7.7l3.2-7.7h0.3h0.3l3.1,7.7l3.1,7.7H85H78.4z"/>
	<polygon class="st0" points="63.1,44.3 63.1,44.3 61.1,48.5 63.2,44.2 	"/>
	<path class="st0" d="M79.8,104.9c-2.7-1.7-5.8-4.8-9.5-9.4L55.8,77L54,74.8l0,0l-4.5-5.7l-5-6.3L61,48.6l0,0l2-4.2L28.5,73.2V46.8
		c0-3.8,0.2-6.2,0.7-7.1c0.6-1.2,1.3-2.1,2.3-2.6c1.3-0.7,3.3-1.1,5.8-1.1v-2l-37-0.1v2h2.5c2.1,0,3.7,0.4,4.9,1.1
		c1.2,0.7,2,1.6,2.4,2.5c0.4,1,0.6,3.4,0.6,7.2l-0.2,48.9c0,3.8-0.2,6.1-0.6,7c-0.5,1.3-1.2,2.1-2.2,2.7c-1.3,0.8-3,1.2-5.2,1.1H0v2
		l37.5,0.1v-2c-2.7,0-4.7-0.4-6-1.1c-1.2-0.7-2.1-1.5-2.5-2.5s-0.7-3.4-0.6-7.3l0.1-20l2.9-2.3l16.8,21.3c3.3,4.3,5,7.2,5,8.7
		c0,0.8-0.4,1.5-1.1,2c-0.7,0.5-2.3,0.9-4.7,1.1v2l38.6,0.2v-2C83.8,106.7,81.7,106.1,79.8,104.9"/>
	<path class="st0" d="M63.1,44.3L63.1,44.3L63.1,44.3z"/>
	<path class="st0" d="M63.2,44.2l-0.1,0.1L63.2,44.2z"/>
	<path class="st0" d="M109.2,95.5c0,4.3-0.3,7-0.9,8.1s-1.5,2-2.9,2.7s-4,1-7.8,1v2.2h41.8v-2c-3.8,0-6.3-0.4-7.7-1
		c-1.4-0.7-2.4-1.6-2.9-2.7s-0.8-3.8-0.8-8.1v-9.1c-3.6-10-12.9-11.5-17-11.7h-1.8V95.5z"/>
	<path class="st0" d="M130.8,74.8c6.7-0.1,11.6-0.5,14.8-1.3c5.8-1.3,10.3-3.7,13.6-7.3c3.3-3.6,5-7.9,5-13c0-6-2.5-11-7.6-15
		s-13.5-6.1-25.2-6.2h-30l13.5,28.4c2.9,5.6,5.3,9.1,7.2,10.5c1.4,1.1,3.4,1.7,6,1.9v2 M140.4,66.5c-2.7,2.8-6.5,4.2-11.4,4.2
		c-0.7,0-1.7,0-3-0.1v-34h2.6c5.3,0,9.3,1.4,12,4.1c2.7,2.7,4,7,4,12.8C144.4,59.4,143,63.7,140.4,66.5"/>
</g>
<g>
	<polygon class="st0" points="332.3,41 281.7,41 281.7,48.5 321.8,48.5 321.8,63.3 279.4,63.3 279.4,70.8 301.9,70.8 301.9,78.4 
		280.5,78.4 280.5,86 321.8,86 321.8,108.9 332.3,108.9 332.3,78.4 312.5,78.4 312.5,70.8 337.9,70.8 337.9,63.3 332.3,63.3 	"/>
	<polygon class="st0" points="384.2,48.5 384.2,41 349.6,41 349.6,48.5 361.3,48.5 348.2,79.1 358.6,79.1 367,60.1 375.4,79.1 
		385.8,79.1 372.6,48.5 	"/>
	<polygon class="st0" points="405.4,41 395.4,41 395.4,108.8 405.4,108.8 405.4,64.8 410,64.8 410,57.2 405.4,57.2 	"/>
	<polygon class="st0" points="615.4,58.4 615.4,41 604.9,41 604.9,108.8 615.4,108.8 615.4,66 622.9,66 622.9,58.4 	"/>
	<polygon class="st0" points="559.1,48.5 583.7,48.5 583.7,79.3 594.2,79.3 594.2,41 559.1,41 	"/>
	<polygon class="st0" points="438.8,55.6 447.1,79.4 457.5,79.4 444,41.1 433.6,41.1 420,79.4 430.4,79.4 	"/>
	<polygon class="st0" points="476.8,41 467,41 467,88.1 476.8,88.1 476.8,64.8 481.6,64.8 481.6,57.2 476.8,57.2 	"/>
	<path class="st0" d="M436.3,84.4H426v17.9c0,2.1,0.8,3.9,2.5,5.1c1.6,1.2,3.4,1.9,5.5,1.9h44.3v-7.5h-42V84.4z"/>
	<path class="st0" d="M220.5,84.4H210v17.9c0,2.1,0.8,3.9,2.5,5.1c1.6,1.2,3.4,1.9,5.5,1.9h44v-7.5h-41.5V84.4z"/>
	<polygon class="st0" points="260.1,41 249.6,41 249.6,88 260.1,88 260.1,62.8 267.6,62.8 267.6,55.2 260.1,55.2 	"/>
	<path class="st0" d="M225.6,78.8c10.3,0,18.7-7,18.7-15.7c0-4.4-2.2-8.5-6-11.5h8v-6.9h-16.1V41h-10.4v3.8h-16.2v6.9h9.2
		c-0.7,0.6-1.4,1.2-2,1.8c-2.6,2.8-4,6.1-4,9.6c0,2.9,1,5.7,2.8,8.1C213.1,76,219.1,78.8,225.6,78.8z M217.4,62.6
		c0-0.9,0.1-1.8,0.3-2.7c1-4,4.3-6.8,7.9-6.8c4.5,0,8.2,4.3,8.2,9.5s-3.7,9.5-8.2,9.5c-3.3,0-6.2-2.2-7.5-5.7
		C217.6,65.1,217.4,63.9,217.4,62.6z"/>
	<polygon class="st0" points="539,48.3 530.6,48.3 530.6,54.9 539,54.9 539,58.7 530.6,58.7 530.6,65.1 539,65.1 539,75.4 
		549.5,75.4 549.5,41 539,41 	"/>
	<path class="st0" d="M533.8,66h-7.6V48.2h7.6V41h-41.1v7.2h7.6V66h-7.6v7.2h41.1V66z M516.6,48.2V66H510V48.2H516.6z"/>
	<path class="st0" d="M527.6,75.1c-11.6,0-21,7.6-21,17s9.4,17,21,17s21-7.6,21-17S539.2,75.1,527.6,75.1z M538.1,92.1
		c0,5.6-4.7,10.1-10.5,10.1s-10.5-4.5-10.5-10.1S521.8,82,527.6,82C533.4,82,538.1,86.5,538.1,92.1z"/>
</g>
</svg>
