<?xml version="1.0" encoding="utf-8"?>
<!-- Generator: Adobe Illustrator 21.0.2, SVG Export Plug-In . SVG Version: 6.00 Build 0)  -->
<svg version="1.1" id="Layer_1" xmlns="http://www.w3.org/2000/svg" xmlns:xlink="http://www.w3.org/1999/xlink" x="0px" y="0px"
	 viewBox="0 0 443.6 50.2" style="enable-background:new 0 0 443.6 50.2;" xml:space="preserve">
<style type="text/css">
	.st0{fill:#757575;}
</style>
<g>
	<g>
		<path class="st0" d="M146.7,39.7c-2.3,8.6,0.8,10.1,10.9,10.1h9.1l2.3-8.6h-3.5c-2.6,0-3.6-0.8-3-3l4.9-18.5h6.8l2.3-8.5h-6.8
			l3-11.3h-15.4l-3,11.3h-6.8l-2.3,8.5h6.8L146.7,39.7z"/>
		<path class="st0" d="M209.8,49.9l7.4-28.2c2.2-8.3-5.2-10.4-9.9-10.4h-27l-2.3,8.5h20.5c2.8,0,3.5,1.4,2.7,4.6l-4.5,16.9h-5.1
			c-2.8,0-3.5-1.3-2.7-4.6l3.5-13.3l-17.2,6.8l-2.4,9.2c-2.2,8.3,2.8,10.4,9.8,10.4L209.8,49.9L209.8,49.9z"/>
		<path class="st0" d="M131.9,11.3h-27.2l-2.3,8.5h14.4l-16.1,6.4l-6.3,23.7h15.4l7.9-30h5c2.8,0,3.5,1.4,2.7,4.6l-6.7,25.4h15.4
			l7.4-28.2C143.8,13.5,138.9,11.3,131.9,11.3z"/>
		<path class="st0" d="M56.9,19.8h14.5l-16.2,6.4l-3.5,13.2c-2.2,8.3,3.1,10.5,10.1,10.5h27.5l2.2-8.5h-21c-2.5,0-3.4-1.4-2.5-4.6
			l0.5-1.8h24.2l3.5-13.2c2.2-8.3-2.7-10.4-9.7-10.4h-20C62.8,11.3,58.7,12.8,56.9,19.8z M77.5,19.8c2.8,0,3.5,1.4,2.7,4.6l-0.4,1.8
			h-8.9l1.7-6.4H77.5z"/>
		<path class="st0" d="M6,0L3.8,8.6h22.5L9.2,15L0,49.9h16.5L21,33h0.4l13.1,0.1c7.8,0,14.6-2.5,17.2-11.7l2.6-9.8
			C56.7,2.4,50.1,0,43.4,0H6z M35.4,18.5c-1,3.6-2.6,5-5.7,5h-6.2l4-14.9h6.3c3.2,0,4,1.5,3,5L35.4,18.5z"/>
	</g>
	<g>
		<path class="st0" d="M229.2,22.1c3-10.2,6.9-11.1,16.1-11.1c7.5,0,12.7,0.3,9.2,10.8h-3.9c1.8-6.7,1.3-7-6.6-7
			c-7.6,0-9.1,1.4-10.6,6.4c-2.2,7.3,1.2,6.7,7.5,6.9c8,0.5,12.2,0.6,9.1,11c-3.2,10.8-7.9,11.2-16.6,11.2c-8.8,0-13-1.2-9-12.3h3.9
			c-2.6,8.4-1.1,8.4,6.2,8.4c7.4,0,9.4,0,11.6-7.5c2.2-7.3-1.1-6.4-7.2-7C232.3,31.3,226.2,32.2,229.2,22.1z"/>
		<path class="st0" d="M260.2,28.1H278l-0.9,3.6h-17.8l-3.8,14.4h18.2l-1,3.8h-22.2l10.2-38.6h22.2l-1,3.8h-18.2L260.2,28.1z"/>
		<path class="st0" d="M344.8,11.3l-7.4,27.9c-2.8,10.7-8.4,11-16.6,11c-7.5,0-13.6-0.2-10.8-11l7.4-27.9h3.9L314,39.2
			c-1.6,6.2-0.6,7.2,7.9,7.2c6.9,0,10-1,11.7-7.2l7.4-27.9C341,11.3,344.8,11.3,344.8,11.3z"/>
		<path class="st0" d="M374.2,49.9h-3.9l10.2-38.6h3.9L374.2,49.9z"/>
		<path class="st0" d="M392.8,49.9h-3.9l9.2-34.8h-11.2l1-3.8h26.3l-1,3.8H402L392.8,49.9z"/>
		<path class="st0" d="M425.2,33.6l-4.3,16.3H417l4.3-16.3L414,11.3h4.6l5.9,17.9L439,11.3h4.6L425.2,33.6z"/>
		<path class="st0" d="M301.8,40c-1.3,5.5-3.4,6.4-9.7,6.4H288c-6.5,0-5.8-4.3-3.7-13l2.8-10.5c1.7-7,4.8-8.1,12.9-8.1h2.2
			c4.9,0,5.5,1.9,4.4,7h3.9c1.7-6.9-0.6-9.4-3.9-10.3c-1.7-0.5-6.1-0.5-6.1-0.5c-8.4,0-14.7,1.2-17.3,12.1l-4,15.2
			c-1.8,7.7,0.8,12.1,7.1,12.1h5c6.9,0,12.1-1,14.3-9.8l0.8-2.9h-3.9L301.8,40z"/>
		<path class="st0" d="M365.4,11.3L365.4,11.3h-16l-10.2,38.6h3.9l4.1-15.6h12.6c4.7,0,5.2,2.4,3.9,7.2l-2.2,8.4h3.9l2.8-10.5
			c1.1-4.1,0.1-6.6-3.7-6.9v-0.1c5.6-0.8,7.2-4.6,8.6-9.8l0,0l0.1-0.3l0,0l0,0l0.1-0.3C375.2,13.6,372.6,11.3,365.4,11.3z
			 M360.3,30.4h-12.1l4.1-15.3h12c3.3,0,4.9,0.5,5.5,1.8c0.4,1.1,0.2,2.7-0.4,4.9C367.7,28.2,366.4,30.2,360.3,30.4z"/>
	</g>
</g>
</svg>
