<?xml version="1.0" encoding="utf-8"?>
<!-- Generator: Adobe Illustrator 21.0.2, SVG Export Plug-In . SVG Version: 6.00 Build 0)  -->
<svg version="1.1" id="Layer_1" xmlns="http://www.w3.org/2000/svg" xmlns:xlink="http://www.w3.org/1999/xlink" x="0px" y="0px"
	 viewBox="0 0 570 74" style="enable-background:new 0 0 570 74;" xml:space="preserve">
<style type="text/css">
	.st0{fill:#616161;}
</style>
<path class="st0" d="M462,71c-1.1,0-2-0.9-2-2V39.5c0-7.4-6-13.5-13.5-13.5h-4C435,26,429,32,429,39.5V69c0,1.1-0.9,2-2,2
	s-2-0.9-2-2V40c0-9.9,8.1-18,18-18h3c9.9,0,18,8.1,18,18v29C464,70.1,463.1,71,462,71z M427,71L427,71L427,71L427,71z"/>
<path class="st0" d="M516,52c1.1,0,2,0.9,2,2v2c0,0.4-0.1,0.7-0.3,1c-1.4,8.5-8.8,15-17.7,15h-4c-9.9,0-18-8.1-18-18V40
	c0-9.9,8.1-18,18-18h4c8.9,0,16.3,6.5,17.7,15c0.2,0.3,0.3,0.6,0.3,1v2c0,1.1-0.9,2-2,2s-2-0.9-2-2v-1l0,0c-0.2-7.2-6.1-13-13.3-13
	h-5.3C488,26,482,32,482,39.4v15.2c0,7.4,6,13.4,13.3,13.4h6.7c7.2,0,11.8-5.8,12-13l0,0v-1C514,52.9,514.9,52,516,52z"/>
<path class="st0" d="M362,72h-2c-0.2,0-0.3,0-0.5-0.1c-8.7-0.7-15.7-7.7-16.4-16.4c0-0.2-0.1-0.3-0.1-0.5V3c0-1.1,0.9-2,2-2
	s2,0.9,2,2v52c0,7.2,5.8,13,13,13h2c1.1,0,2,0.9,2,2S363.1,72,362,72z"/>
<path class="st0" d="M255,72h-4c-9.9,0-18-8.1-18-18V2c0-1.1,0.9-2,2-2s2,0.9,2,2v20h18c9.9,0,18,8.1,18,18v14
	C273,63.9,264.9,72,255,72z M269,39.2c0-7.3-6-13.2-13.3-13.2h-3.6H237l0,0v28.7c0,7.4,6,13.3,13.3,13.3h5.3c7.4,0,13.3-6,13.3-13.3
	V39.2H269z"/>
<path class="st0" d="M187,52h8c1.1,0,2,0.9,2,2l0,0l0,0v2c0,9.9-8.1,18-18,18h-11c-9.9,0-18-8.1-18-18V32c0-9.9,8.1-18,18-18h11
	c9.9,0,18,8.1,18,18v16h-7h-5h-23v5.7c0,4.6,3.7,8.3,8.3,8.3h6.5c4.5,0,8.1-3.6,8.2-8l0,0l0,0C185,52.9,185.9,52,187,52z M185,36
	v-1.7c0-4.6-3.7-8.3-8.3-8.3h-6.5c-4.6,0-8.3,3.7-8.3,8.3V36H185z"/>
<path class="st0" d="M566,54c0-1.1,0.9-2,2-2s2,0.9,2,2v1c0,0.2,0,0.4-0.1,0.7C569,64.8,561.4,72,552,72h-3c-9.9,0-18-8.1-18-18V40
	c0-9.9,8.1-18,18-18h3c9.9,0,18,8.1,18,18v8h-3h-1h-31l0,0v6.5c0,7.5,6,13.5,13.5,13.5h4c7.3,0,13.2-5.8,13.5-13l0,0l0,0V54z
	 M535,44h31v-4.6c0-7.4-6-13.4-13.5-13.4h-4C541,26,535,32,535,39.4V44L535,44z"/>
<path class="st0" d="M407,72c-1.1,0-2-0.9-2-2v-5.7c-3.6,4.7-9.2,7.7-15.5,7.7c-10.8,0-19.5-8.7-19.5-19.5v-11
	c0-10.8,8.7-19.5,19.5-19.5S409,30.7,409,41.5V47v5.5V70C409,71.1,408.1,72,407,72z M405,41.5c0-8.6-6.9-15.5-15.5-15.5
	S374,32.9,374,41.5v11c0,8.6,6.9,15.5,15.5,15.5S405,61.1,405,52.5V47V41.5z"/>
<path class="st0" d="M324,72c-1.1,0-2-0.9-2-2v-5.7c-3.6,4.7-9.2,7.7-15.5,7.7c-10.8,0-19.5-8.7-19.5-19.5v-11
	c0-10.8,8.7-19.5,19.5-19.5S326,30.7,326,41.5v11V70C326,71.1,325.1,72,324,72z M322,41.5c0-8.6-6.9-15.5-15.5-15.5
	S291,32.9,291,41.5v11c0,8.6,6.9,15.5,15.5,15.5S322,61.1,322,52.5V41.5z"/>
<path class="st0" d="M49,50h-2c1.1,0,2-0.9,2-2v-8.9c0.6,1.8,1,3.8,1,5.9v5.3C49.7,50.1,49.4,50,49,50z M30,73h-9.7H19h-1
	C8.1,73,0,64.9,0,55v-1v-9V2c0-1.1,0.9-2,2-2h8c1.1,0,2,0.9,2,2v13h18c1.1,0,2,0.9,2,2v8c0,1.1-0.9,2-2,2H12v25.6
	c0,4.5,3.6,8.2,8,8.4l0,0h10c1.1,0,2,0.9,2,2v8C32,72.1,31.1,73,30,73z"/>
<path class="st0" d="M77,27H67l0,0c-4.4,0.1-8,3.7-8,8.1V70c0,1.1-0.9,2-2,2h-8c-1.1,0-2-0.9-2-2V33c0-9.9,8.1-18,18-18h2l0,0h10
	c1.1,0,2,0.9,2,2v8C79,26.1,78.1,27,77,27z"/>
<path class="st0" d="M119,74h-11c-9.9,0-18-8.1-18-18V16c0-1.1,0.9-2,2-2h8c1.1,0,2,0.9,2,2v37.5c0,4.7,3.7,8.5,8.3,8.5h6.5
	c4.6,0,8.3-3.8,8.3-8.5V16c0-1.1,0.9-2,2-2h8c1.1,0,2,0.9,2,2v40C137,65.9,128.9,74,119,74z"/>
<path class="st0" d="M102,29.9"/>
</svg>
