<?xml version="1.0" encoding="utf-8"?>
<!-- Generator: Adobe Illustrator 21.0.2, SVG Export Plug-In . SVG Version: 6.00 Build 0)  -->
<svg version="1.1" id="Layer_1" xmlns="http://www.w3.org/2000/svg" xmlns:xlink="http://www.w3.org/1999/xlink" x="0px" y="0px"
	 viewBox="0 0 1920 530.1" style="enable-background:new 0 0 1920 530.1;" xml:space="preserve">
<style type="text/css">
	.st0{fill:url(#SVGID_1_);}
	.st1{fill:url(#SVGID_2_);}
	.st2{fill:url(#SVGID_3_);}
</style>
<linearGradient id="SVGID_1_" gradientUnits="userSpaceOnUse" x1="1174.1641" y1="229.0394" x2="1919.9995" y2="229.0394">
	<stop  offset="0" style="stop-color:#26A69A"/>
	<stop  offset="1" style="stop-color:#00897B"/>
</linearGradient>
<path class="st0" d="M1618.4,0.2h-346.9l-97.4,45.6c136.2,291.1,443.4,447.4,745.8,405.4V55.7C1814.6,88.9,1701.9,66,1618.4,0.2z"/>
<linearGradient id="SVGID_2_" gradientUnits="userSpaceOnUse" x1="781.9747" y1="101.8455" x2="1108.3759" y2="428.2466">
	<stop  offset="0" style="stop-color:#3949AB"/>
	<stop  offset="1" style="stop-color:#303F9F"/>
</linearGradient>
<path class="st1" d="M1226.1,0L1226.1,0h-50.9l0,0h-125.8l0,0H883.8c0,38.7-15.7,73.8-41.1,99.2L628.1,313.8l0,0
	c-55.4,55.3-89.6,131.8-89.6,216.3l165.5,0c0,0,0,0,0,0l125.8,0l0,0h50.9c0,0,0,0,0,0l125.8,0c0-38.7,15.7-73.8,41.1-99.2
	l214.6-214.6l0,0c55.4-55.3,89.6-131.8,89.6-216.3H1226.1z"/>
<linearGradient id="SVGID_3_" gradientUnits="userSpaceOnUse" x1="0" y1="288.5666" x2="723.6011" y2="288.5666">
	<stop  offset="0" style="stop-color:#26A69A"/>
	<stop  offset="1" style="stop-color:#00897B"/>
</linearGradient>
<path class="st2" d="M279.1,530.1h444.5C618.9,223.8,320.1,27.1,0,48.7v388.9C105.2,422.2,207.8,459,279.1,530.1z"/>
</svg>
