<?xml version="1.0" encoding="utf-8"?>
<!-- Generator: Adobe Illustrator 21.0.2, SVG Export Plug-In . SVG Version: 6.00 Build 0)  -->
<svg version="1.1" id="Layer_1" xmlns="http://www.w3.org/2000/svg" xmlns:xlink="http://www.w3.org/1999/xlink" x="0px" y="0px"
	 viewBox="0 0 338 204" style="enable-background:new 0 0 338 204;" xml:space="preserve">
<style type="text/css">
	.st0{fill:#212121;}
	.st1{fill:#F5F5F5;}
	.st2{fill:#283593;}
	.st3{fill:#FF8A80;}
	.st4{fill:#EEEEEE;}
	.st5{fill:none;stroke:#E0E0E0;stroke-miterlimit:10;}
	.st6{fill:#E0E0E0;}
</style>
<g>
	<path class="st0" d="M16.9,204.5h316.4c2.8,0,5-2.2,5-5V16.8c0-2.8-2.2-5-5-5H16.9c-2.8,0-5,2.2-5,5v182.6
		C11.9,202.2,14.2,204.5,16.9,204.5z"/>
	<path class="st1" d="M4.8,192.4h316.4c2.8,0,5-2.2,5-5V4.7c0-2.8-2.2-5-5-5H4.8c-2.8,0-5,2.2-5,5v182.6
		C-0.2,190.1,2.1,192.4,4.8,192.4z"/>
	<polygon class="st2" points="7.9,38.6 7.9,47.8 7.9,50.7 49.4,50.7 49.4,47.8 49.4,38.6 	"/>
	<polygon class="st2" points="7.9,54.9 7.9,64 7.9,66.9 49.4,66.9 49.4,64 49.4,54.9 	"/>
	<polygon class="st2" points="7.9,71.1 7.9,80.3 7.9,83.2 49.4,83.2 49.4,80.3 49.4,71.1 	"/>
	<polygon class="st2" points="7.9,87.4 7.9,96.5 7.9,99.4 49.4,99.4 49.4,96.5 49.4,87.4 	"/>
	<polygon class="st2" points="7.9,103.6 7.9,112.8 7.9,115.7 49.4,115.7 49.4,112.8 49.4,103.6 	"/>
	<polygon class="st2" points="7.9,119.9 7.9,129 7.9,132 49.4,132 49.4,129 49.4,119.9 	"/>
	<path class="st3" d="M163.4,38.6c-12.3,0-22.3,10-22.3,22.3c0,12.3,10,22.3,22.3,22.3c12.3,0,22.3-10,22.3-22.3
		C185.7,48.6,175.7,38.6,163.4,38.6z M163.4,71.1c-5.6,0-10.2-4.6-10.2-10.2c0-5.6,4.6-10.2,10.2-10.2c5.6,0,10.2,4.6,10.2,10.2
		C173.6,66.6,169,71.1,163.4,71.1z"/>
	<path class="st3" d="M163.4,87c-12.3,0-22.3,10-22.3,22.3c0,12.3,10,22.3,22.3,22.3c12.3,0,22.3-10,22.3-22.3
		C185.7,97,175.7,87,163.4,87z M163.4,119.5c-5.6,0-10.2-4.6-10.2-10.2c0-5.6,4.6-10.2,10.2-10.2c5.6,0,10.2,4.6,10.2,10.2
		C173.6,115,169,119.5,163.4,119.5z"/>
	<path class="st3" d="M163.4,135.4c-12.3,0-22.3,10-22.3,22.3c0,12.3,10,22.3,22.3,22.3c12.3,0,22.3-10,22.3-22.3
		C185.7,145.4,175.7,135.4,163.4,135.4z M163.4,168c-5.6,0-10.2-4.6-10.2-10.2c0-5.6,4.6-10.2,10.2-10.2c5.6,0,10.2,4.6,10.2,10.2
		C173.6,163.4,169,168,163.4,168z"/>
	<path class="st4" d="M326.2,13.7v-9c0-2.8-2.2-5-5-5H4.8c-2.8,0-5,2.2-5,5v9H326.2z"/>
	<line class="st5" x1="-0.2" y1="13.7" x2="326.3" y2="13.7"/>
	<line class="st5" x1="-0.2" y1="30.9" x2="326.3" y2="30.9"/>
	<circle class="st6" cx="8.4" cy="6.7" r="3"/>
	<circle class="st6" cx="15.9" cy="6.7" r="3"/>
	<circle class="st6" cx="23.3" cy="6.7" r="3"/>
	<line class="st5" x1="57.4" y1="30.9" x2="57.4" y2="192.4"/>
	<line class="st5" x1="268.7" y1="30.9" x2="268.7" y2="192.4"/>
</g>
</svg>
