<?xml version="1.0" encoding="utf-8"?>
<!-- Generator: Adobe Illustrator 21.0.2, SVG Export Plug-In . SVG Version: 6.00 Build 0)  -->
<svg version="1.1" id="Layer_1" xmlns="http://www.w3.org/2000/svg" xmlns:xlink="http://www.w3.org/1999/xlink" x="0px" y="0px"
	 viewBox="0 0 2160 953" style="enable-background:new 0 0 2160 953;" xml:space="preserve">
<style type="text/css">
	.st0{fill:#283593;}
	.st1{fill:#303F9F;}
	.st2{fill:#3949AB;}
</style>
<path class="st0" d="M334.1,0H0l0,470l0.1,0v-342C119.7,127.9,239.3,85.3,334.1,0z"/>
<path class="st1" d="M0.1,684v-30.8l-0.1,0v299.4l498-206.3V562.9C342.4,643.6,171.2,684,0.1,684z"/>
<path class="st0" d="M813.1,436.9V313.7c-27.6,18.1-53.9,39.3-78.1,63.6C655.3,457,566.1,521.4,471.2,570.6v180.8v55.7l769.5-318.8
	V305C1112.2,392.9,962.6,436.9,813.1,436.9z"/>
<path class="st2" d="M1788.5,0c-70.9,25.1-145.3,37.7-219.7,37.7v80.6c-90.9,0-181.7,34.7-251,104c-34.7,34.7-71.8,65.3-110.8,92
	v187.1v61.9l953-394.2V0H1788.5z"/>
<path class="st0" d="M1853,0h-283v54.9C1666.2,54.9,1762.4,36.6,1853,0z"/>
<path class="st1" d="M1074.3,247.5c-93.7,0-187.4,26.7-268.8,80V451c149.9,0,299.9-44.1,428.7-132.2c38.4-26.2,74.8-56.4,108.9-90.4
	c68.1-68.1,157.4-102.2,246.6-102.2V47V0h-515.5V247.5z"/>
<path class="st2" d="M494.7,587.8c95.6-49.6,185.4-114.4,265.6-194.7c24.5-24.5,50.9-45.8,78.7-64.1c81.7-53.6,175.9-80.4,270-80.4
	V0H329.6C236,84.1,118.1,126.2,0.1,126.2v337.4v213.8V708C170.1,708,340.1,667.9,494.7,587.8z"/>
</svg>
