<?xml version="1.0" encoding="utf-8"?>
<!-- Generator: Adobe Illustrator 21.0.2, SVG Export Plug-In . SVG Version: 6.00 Build 0)  -->
<svg version="1.1" id="Layer_1" xmlns="http://www.w3.org/2000/svg" xmlns:xlink="http://www.w3.org/1999/xlink" x="0px" y="0px"
	 viewBox="0 0 1920 1080" style="enable-background:new 0 0 1920 1080;" xml:space="preserve">
<style type="text/css">
	.st0{fill:#FFFFFF;}
	.st1{fill:#283593;}
	.st2{fill:#303F9F;}
	.st3{fill:#3949AB;}
	.st4{fill:#5C6BC0;}
</style>
<rect x="0" y="0" class="st0" width="1919.9" height="1080"/>
<polygon class="st1" points="0.1,0 0.1,-27 0,-27 0,540 1079.8,92.7 1079.8,0 "/>
<polygon class="st2" points="0,984.1 492,780.3 492,521.9 0,725.7 "/>
<polygon class="st1" points="429.7,854.8 1110.8,572.7 1110.8,215 429.7,497.2 "/>
<path class="st1" d="M2765.6,1196.3c-23.4,23.4-54.2,35.2-84.9,35.2v141.7c67,0,134-25.6,185.1-76.7c23.4-23.4,54.2-35.2,84.9-35.2
	v-141.7C2883.7,1119.6,2816.7,1145.2,2765.6,1196.3z"/>
<path class="st2" d="M2765.6,1323.3c-23.4,23.4-54.2,35.2-84.9,35.2v141.7c67,0,134-25.6,185.1-76.7c23.4-23.4,54.2-35.2,84.9-35.2
	v-141.7C2883.7,1246.6,2816.7,1272.2,2765.6,1323.3z"/>
<path class="st3" d="M2765.6,1450.3c-23.4,23.4-54.2,35.2-84.9,35.2v141.7c67,0,134-25.6,185.1-76.7c23.4-23.4,54.2-35.2,84.9-35.2
	v-141.7C2883.7,1373.6,2816.7,1399.2,2765.6,1450.3z"/>
<path class="st4" d="M2765.6,1577.3c-23.4,23.4-54.2,35.2-84.9,35.2v141.7c67,0,134-25.6,185.1-76.7c23.4-23.4,54.2-35.2,84.9-35.2
	v-141.7C2883.7,1500.6,2816.7,1526.2,2765.6,1577.3z"/>
<polyline class="st3" points="1920,0 1429.6,0 1102.9,135.4 1102.9,629 1920,291 "/>
<g>
	<path class="st1" d="M1413.1,0v178.3c144.2,0,288.5-55,398.5-165.1c4.6-4.6,9.4-9,14.3-13.2H1413.1z"/>
</g>
<path class="st2" d="M1044.6,0c-35.5,23.8-69.2,51.3-100.6,82.7c-59.4,59.4-137.3,89.2-215.2,89.2v359.1
	c169.8,0,339.6-64.8,469.2-194.3c59.4-59.4,137.3-89.2,215.2-89.2V0H1044.6z"/>
<path class="st3" d="M452.3,0C399.5,34.6,349.4,75.1,303,121.5C219.4,205.1,109.7,246.9,0.1,246.9v505.4
	c239,0,477.9-91.2,660.3-273.5c83.6-83.6,193.3-125.5,302.9-125.5V0H452.3z"/>
</svg>
