<?xml version="1.0" encoding="utf-8"?>
<!-- Generator: Adobe Illustrator 21.0.2, SVG Export Plug-In . SVG Version: 6.00 Build 0)  -->
<svg version="1.1" id="Layer_1" xmlns="http://www.w3.org/2000/svg" xmlns:xlink="http://www.w3.org/1999/xlink" x="0px" y="0px"
	 viewBox="0 0 1920 530.1" style="enable-background:new 0 0 1920 530.1;" xml:space="preserve">
<style type="text/css">
	.st0{fill:url(#SVGID_1_);}
	.st1{fill:url(#SVGID_2_);}
	.st2{fill:url(#SVGID_3_);}
</style>
<linearGradient id="SVGID_1_" gradientUnits="userSpaceOnUse" x1="1174.1" y1="303.2254" x2="1919.8999" y2="303.2254" gradientTransform="matrix(1 0 0 -1 0 532)">
	<stop  offset="0" style="stop-color:#424242"/>
	<stop  offset="1" style="stop-color:#212121"/>
</linearGradient>
<path class="st0" d="M1618.4-0.1h-346.9l-97.4,45.6c136.2,291.1,443.4,447.4,745.8,405.4V55.4C1814.6,88.6,1701.9,65.7,1618.4-0.1z"
	/>
<linearGradient id="SVGID_2_" gradientUnits="userSpaceOnUse" x1="0" y1="243.4082" x2="723.6" y2="243.4082" gradientTransform="matrix(1 0 0 -1 0 532)">
	<stop  offset="0" style="stop-color:#424242"/>
	<stop  offset="1" style="stop-color:#212121"/>
</linearGradient>
<path class="st1" d="M279.1,530.1h444.5C618.9,223.8,320.1,27.1,0,48.7v388.9C105.2,422.2,207.8,459,279.1,530.1z"/>
<linearGradient id="SVGID_3_" gradientUnits="userSpaceOnUse" x1="781.95" y1="649.85" x2="1108.35" y2="976.25" gradientTransform="matrix(1 0 0 1 0 -548)">
	<stop  offset="0" style="stop-color:#424242"/>
	<stop  offset="1" style="stop-color:#212121"/>
</linearGradient>
<path class="st2" d="M1226.1,0L1226.1,0h-50.9l0,0h-125.8l0,0H883.8c0,38.7-15.7,73.8-41.1,99.2L628.1,313.8l0,0
	c-55.4,55.3-89.6,131.8-89.6,216.3H704l0,0h125.8l0,0h50.9l0,0h125.8c0-38.7,15.7-73.8,41.1-99.2l214.6-214.6l0,0
	c55.4-55.3,89.6-131.8,89.6-216.3L1226.1,0L1226.1,0z"/>
</svg>
