<?xml version="1.0" encoding="utf-8"?>
<!-- Generator: Adobe Illustrator 21.0.2, SVG Export Plug-In . SVG Version: 6.00 Build 0)  -->
<svg version="1.1" id="Layer_1" xmlns="http://www.w3.org/2000/svg" xmlns:xlink="http://www.w3.org/1999/xlink" x="0px" y="0px"
	 viewBox="0 0 2160 953" style="enable-background:new 0 0 2160 953;" xml:space="preserve">
<style type="text/css">
	.st0{fill:#283593;}
	.st1{fill:#303F9F;}
	.st2{fill:#3949AB;}
	.st3{fill:url(#SVGID_1_);}
	.st4{fill:url(#SVGID_2_);}
</style>
<path class="st0" d="M0,170.1C158.9,170,318,113.4,444,0H0V170.1"/>
<path class="st1" d="M0,721.5v70l498-91.8v-99.3C342.4,681.1,171.2,701.5,0.1,701.5"/>
<path class="st0" d="M471.2,723l769.5-141.8V243.9c-128.5,87.9-278.1,131.9-427.6,131.9V252.6c-27.6,18.1-53.9,39.3-78.1,63.6
	c-79.7,79.7-168.9,144.1-263.8,193.3V723z"/>
<path class="st2" d="M1788.5-85.5c-70.9,25.1-145.3,37.7-219.7,37.7v80.6c-90.9,0-181.7,34.7-251,104c-34.7,34.7-71.8,65.3-110.8,92
	v187.1v191.3l953-174.9V-85.5H1788.5z"/>
<path class="st0" d="M1853,0h-283v54.9C1666.2,54.9,1762.4,36.6,1853,0z"/>
<linearGradient id="SVGID_1_" gradientUnits="userSpaceOnUse" x1="711.5001" y1="676.5" x2="1725.222" y2="676.5" gradientTransform="matrix(1 0 0 -1 0 954)">
	<stop  offset="0" style="stop-color:#283593"/>
	<stop  offset="0.5278" style="stop-color:#5C6BC0"/>
	<stop  offset="0.7688" style="stop-color:#5A69BF"/>
	<stop  offset="0.8724" style="stop-color:#5362BA"/>
	<stop  offset="0.9494" style="stop-color:#4656B3"/>
	<stop  offset="1" style="stop-color:#3949AB"/>
</linearGradient>
<path class="st3" d="M1018.7,265.6c-121.1,0-202,74.8-307.2,143.7V569c193.8,0,387.7-57,554.2-170.9
	c49.6-33.9,96.7-72.9,140.8-116.9c88-88,203.5-132.1,318.8-132.1V46.8V-14h-666.4l0.1,272.7L1018.7,265.6z"/>
<linearGradient id="SVGID_2_" gradientUnits="userSpaceOnUse" x1="-84" y1="575.387" x2="1102" y2="575.387" gradientTransform="matrix(1 0 0 -1 0 954)">
	<stop  offset="0" style="stop-color:#3949AB"/>
	<stop  offset="2.667706e-02" style="stop-color:#3A55B4"/>
	<stop  offset="0.1366" style="stop-color:#3E80D7"/>
	<stop  offset="0.2223" style="stop-color:#419BED"/>
	<stop  offset="0.2726" style="stop-color:#42A5F5"/>
	<stop  offset="1" style="stop-color:#303F9F"/>
</linearGradient>
<path class="st4" d="M445,628.7c102.2-53,198.3-122.4,284.1-208.2c26.2-26.2,54.4-49,84.2-68.6c87.4-57.3,188.1-86,288.8-86V0H268.4
	C168.3,89.9,42.2,135-84,135v360.9v228.7v32.7C97.8,757.2,279.6,714.3,445,628.7z"/>
</svg>
