<?xml version="1.0" encoding="utf-8"?>
<!-- Generator: Adobe Illustrator 21.0.2, SVG Export Plug-In . SVG Version: 6.00 Build 0)  -->
<svg version="1.1" id="Layer_1" xmlns="http://www.w3.org/2000/svg" xmlns:xlink="http://www.w3.org/1999/xlink" x="0px" y="0px"
	 viewBox="0 0 36.6 36.6" style="enable-background:new 0 0 36.6 36.6;" xml:space="preserve">
<style type="text/css">
	.st0{fill:#5C6BC0;}
	.st1{fill:#3949AB;}
</style>
<g>
	<path class="st0" d="M5.3,14.6c0,1,0.6,1.9,1.5,2.2c0.5,0.2,0.7,0.6,0.7,1.1v4.3c0,0.7,0.5,1.2,1.2,1.2h15.1c0.7,0,1.2-0.5,1.2-1.2
		V7.1c0-0.7-0.5-1.2-1.2-1.2h-4.3c-0.5,0-1,0.3-1.1,0.7c-0.3,0.9-1.2,1.5-2.2,1.5c-1,0-1.9-0.6-2.2-1.5c-0.2-0.5-0.6-0.7-1.1-0.7
		H8.8c-0.7,0-1.2,0.5-1.2,1.2v4.3c0,0.5-0.3,1-0.7,1.1C5.9,12.8,5.3,13.6,5.3,14.6z"/>
	<path class="st1" d="M22.6,10.9c-1,0-1.9,0.6-2.2,1.5c-0.2,0.5-0.6,0.7-1.1,0.7H15c-0.7,0-1.2,0.5-1.2,1.2v15.1
		c0,0.7,0.5,1.2,1.2,1.2h15.1c0.7,0,1.2-0.5,1.2-1.2v-4.3c0-0.5-0.3-1-0.7-1.1C29.7,23.8,29,23,29,22s0.6-1.9,1.5-2.2
		c0.5-0.2,0.7-0.6,0.7-1.1v-4.3c0-0.7-0.5-1.2-1.2-1.2h-4.3c-0.5,0-1-0.3-1.1-0.7C24.4,11.6,23.6,10.9,22.6,10.9z"/>
</g>
</svg>
