<?xml version="1.0" encoding="utf-8"?>
<!-- Generator: Adobe Illustrator 21.0.2, SVG Export Plug-In . SVG Version: 6.00 Build 0)  -->
<svg version="1.1" id="Layer_1" xmlns="http://www.w3.org/2000/svg" xmlns:xlink="http://www.w3.org/1999/xlink" x="0px" y="0px"
	 viewBox="0 0 171.5 64" style="enable-background:new 0 0 171.5 64;" xml:space="preserve">
<style type="text/css">
	.st0{fill:#FAFAFA;}
</style>
<g>
	<g>
		<circle class="st0" cx="120.1" cy="5.4" r="5.4"/>
		<path class="st0" d="M41,56.7c-1.7-1.7-2.6-4-2.6-6.2h0v-6.8c0,0,0,0,0,0s0,0,0,0V24.4V13.6c0-4.9-1.9-9.8-5.6-13.6l-7.3,7.3
			c1.7,1.7,2.6,4,2.6,6.2v10.8v2.1c-2.6-1.4-5.6-2.1-8.8-2.1C8.6,24.4,0,33,0,43.6c0,10.6,8.6,19.2,19.2,19.2c4.1,0,7.9-1.3,11-3.5
			c0.9,1.7,2,3.3,3.4,4.7L41,56.7z M19.2,52.4c-4.9,0-8.8-3.9-8.8-8.8c0-4.9,3.9-8.8,8.8-8.8c4.9,0,8.8,3.9,8.8,8.8v0
			C28,48.5,24.1,52.4,19.2,52.4z"/>
		<path class="st0" d="M98.3,27.9c-0.9-1.7-2-3.3-3.4-4.7l-7.3,7.3c1.7,1.7,2.6,4,2.6,6.2h0v6.8c0,0,0,0,0,0l0,0v19.2h2.5h7.9V43.6
			c0-4.9,3.9-8.8,8.8-8.8V24.4C105.2,24.4,101.4,25.7,98.3,27.9z"/>
		<path class="st0" d="M125.2,50.3L125.2,50.3l0-25.9h-7.9h-2.5v25.9c0,4.9,1.9,9.8,5.6,13.6l7.3-7.3
			C126,54.8,125.2,52.5,125.2,50.3z"/>
		<path class="st0" d="M84.7,56.7c-1.7-1.7-2.6-4-2.6-6.2v-26h-7.9h-2.5v2.1c-2.6-1.4-5.6-2.1-8.8-2.1c-10.6,0-19.2,8.6-19.2,19.2
			c0,10.6,8.6,19.2,19.2,19.2c4.1,0,7.9-1.3,11-3.5c0.9,1.7,2,3.3,3.4,4.7L84.7,56.7z M62.9,52.4c-4.9,0-8.8-3.9-8.8-8.8
			c0-4.9,3.9-8.8,8.8-8.8c4.9,0,8.8,3.9,8.8,8.8C71.8,48.5,67.8,52.4,62.9,52.4z"/>
		<path class="st0" d="M171.5,56.7c-1.7-1.7-2.6-4-2.6-6.2v-26H161h-2.5v2.1c-2.6-1.4-5.6-2.1-8.8-2.1c-10.6,0-19.2,8.6-19.2,19.2
			c0,10.6,8.6,19.2,19.2,19.2c4.1,0,7.9-1.3,11-3.5c0.9,1.7,2,3.3,3.4,4.7L171.5,56.7z M149.7,52.4c-4.9,0-8.8-3.9-8.8-8.8
			c0-4.9,3.9-8.8,8.8-8.8c4.9,0,8.8,3.9,8.8,8.8C158.5,48.5,154.6,52.4,149.7,52.4z"/>
	</g>
</g>
</svg>
