<?xml version="1.0" encoding="utf-8"?>
<!-- Generator: Adobe Illustrator 21.0.2, SVG Export Plug-In . SVG Version: 6.00 Build 0)  -->
<svg version="1.1" id="Layer_1" xmlns="http://www.w3.org/2000/svg" xmlns:xlink="http://www.w3.org/1999/xlink" x="0px" y="0px"
	 viewBox="0 0 254.2 22.6" style="enable-background:new 0 0 254.2 22.6;" xml:space="preserve">
<path d="M10,0.3c3.7,0,6.6,3,6.6,6.6c0,1.8-0.7,3.4-1.8,4.6c1.1,1.2,1.8,2.7,1.8,4.5c0,3.6-3,6.6-6.6,6.6H0.5C0.2,22.5,0,22.3,0,22
	V0.7c0-0.3,0.2-0.5,0.5-0.5H10z M4.4,9.4h5.3c1.4,0,2.5-1.2,2.5-2.5c0-1.4-1.1-2.5-2.5-2.5H4.4V9.4z M9.6,18.5
	c1.4,0,2.6-1.3,2.6-2.6c0-1.1-0.7-2.4-1.9-2.4H4.4v5H9.6z"/>
<path d="M21.3,0.7c0-0.3,0.2-0.5,0.5-0.5h14.5c0.3,0,0.5,0.2,0.5,0.5v3.1c0,0.3-0.2,0.5-0.5,0.5H25.7v5.4H34c0.3,0,0.5,0.2,0.5,0.5
	v3c0,0.3-0.2,0.5-0.5,0.5h-8.4v4.8h10.5c0.3,0,0.5,0.2,0.5,0.5V22c0,0.3-0.2,0.5-0.5,0.5H21.7c-0.3,0-0.5-0.2-0.5-0.5V0.7z"/>
<path d="M41.3,20.3c0-0.1,0-0.2,0-0.3l1.3-2.5c0.1-0.1,0.2-0.2,0.4-0.2c0.1,0,0.2,0,0.3,0c0.8,0.5,2.7,1.3,5.7,1.3
	c1.8,0,3.6-1,3.6-2.3c0-3.7-11.6-2.3-11.6-10.1c0-4,2.8-6.4,7.8-6.4c2.7,0,5.4,1.1,6.5,1.5c0.1,0.1,0.2,0.2,0.3,0.4
	c0,0.1,0,0.2,0,0.3l-1.2,2.7c0,0.2-0.2,0.3-0.4,0.3c-0.1,0-0.2,0-0.3-0.1c-1-0.3-3.4-1-4.8-1c-3.5,0-3.6,2-3.6,2.5
	c0,4.1,11.5,2.7,11.5,10.2c0,3.6-4.3,5.9-7.4,5.9c-2.7,0-5.3-0.2-8-2C41.5,20.7,41.3,20.5,41.3,20.3"/>
<path d="M71.4,0.3c3.7,0,6.6,3,6.6,7.4c0,4.5-3,7.3-6.6,7.3h-5.7v7c0,0.3-0.2,0.5-0.5,0.5h-3.5c-0.3,0-0.5-0.2-0.5-0.5V0.7
	c0-0.3,0.2-0.5,0.5-0.5H71.4z M73.6,7.7c0-2.2-1.2-3.2-2.6-3.2h-5.3v6.4H71C72.4,10.9,73.6,9.9,73.6,7.7"/>
<path d="M86,22c0,0.3-0.2,0.5-0.5,0.5H82c-0.3,0-0.5-0.2-0.5-0.5V0.7c0-0.3,0.2-0.5,0.5-0.5h3.5c0.3,0,0.5,0.2,0.5,0.5V22z"/>
<path d="M110.5,0.7V22c0,0.3-0.2,0.5-0.5,0.5h-3.5c-0.3,0-0.5-0.2-0.5-0.5v-7.2L95.8,8.1V22c0,0.3-0.2,0.5-0.5,0.5h-3.5
	c-0.3,0-0.5-0.2-0.5-0.5V0.5C91.4,0.2,91.6,0,92,0l14.1,9.5V0.7c0-0.3,0.2-0.5,0.5-0.5h3.5C110.3,0.3,110.5,0.5,110.5,0.7"/>
<path d="M141.4,22.5c-0.2,0-0.4-0.1-0.5-0.3l-0.9-1.1c-1.7,1-3.7,1.6-5.8,1.6c-6.2,0-11.3-5.1-11.3-11.3S127.9,0,134.1,0
	c3.1,0,6,1.2,8,3.3c0.1,0.1,0.2,0.3,0.2,0.4c0,0.2-0.1,0.3-0.2,0.3l-2.2,2.1c-0.1,0.1-0.2,0.1-0.3,0.1c-0.2,0-0.3-0.1-0.4-0.2
	c-1.4-1.3-3.1-2-5.1-2c-4.1,0-6.9,3.3-6.9,7.3c0,4.1,2.8,7.3,6.9,7.3c1.8,0,3.4-0.6,4.7-1.6v-2.7h-4c-0.3,0-0.5-0.2-0.5-0.5v-3
	c0-0.3,0.2-0.5,0.5-0.5h7.9c0.3,0,0.5,0.2,0.5,0.5V22c0,0.3-0.2,0.5-0.5,0.5H141.4z"/>
<path d="M163.9,22c0,0.3-0.2,0.5-0.5,0.5h-14.5c-0.3,0-0.5-0.2-0.5-0.5V0.7c0-0.3,0.2-0.5,0.5-0.5h3.5c0.3,0,0.5,0.2,0.5,0.5v17.8
	h10.5c0.3,0,0.5,0.2,0.5,0.5V22z"/>
<path d="M189.2,11.3c0,6.2-5.1,11.3-11.3,11.3c-6.2,0-11.3-5.1-11.3-11.3c0-6.2,5.1-11.3,11.3-11.3C184.2,0,189.2,5.1,189.2,11.3
	 M184.8,11.4c0-4.1-2.9-7.3-7-7.3c-4.1,0-6.9,3.3-6.9,7.3c0,4.1,2.8,7.3,6.9,7.3C181.9,18.7,184.8,15.5,184.8,11.4"/>
<path d="M203.7,0.3c3.7,0,6.6,3,6.6,6.6c0,1.8-0.7,3.4-1.8,4.6c1.1,1.2,1.8,2.7,1.8,4.5c0,3.6-3,6.6-6.6,6.6h-9.5
	c-0.3,0-0.5-0.2-0.5-0.5V0.7c0-0.3,0.2-0.5,0.5-0.5H203.7z M198.1,9.4h5.3c1.4,0,2.5-1.2,2.5-2.5c0-1.4-1.1-2.5-2.5-2.5h-5.3V9.4z
	 M203.4,18.5c1.4,0,2.6-1.3,2.6-2.6c0-1.1-0.7-2.4-1.9-2.4h-5.9v5H203.4z"/>
<path d="M228.3,17.6H220l-2.1,4.3c-0.1,0.2-0.3,0.5-0.6,0.5h-3.8c-0.3,0-0.5-0.2-0.5-0.5l10.5-21.6c0.2-0.2,0.3-0.3,0.6-0.3
	c0.2,0,0.4,0.1,0.6,0.3L235.2,22c0,0.3-0.2,0.5-0.5,0.5H231c-0.3,0-0.5-0.2-0.6-0.5L228.3,17.6z M226.4,13.7l-2.2-4.6l-2.2,4.6
	H226.4z"/>
<path d="M254.2,22c0,0.3-0.2,0.5-0.5,0.5h-14.5c-0.3,0-0.5-0.2-0.5-0.5V0.7c0-0.3,0.2-0.5,0.5-0.5h3.5c0.3,0,0.5,0.2,0.5,0.5v17.8
	h10.5c0.3,0,0.5,0.2,0.5,0.5V22z"/>
</svg>
