<?xml version="1.0" encoding="utf-8"?>
<!-- Generator: Adobe Illustrator 21.0.2, SVG Export Plug-In . SVG Version: 6.00 Build 0)  -->
<svg version="1.1" id="Layer_1" xmlns="http://www.w3.org/2000/svg" xmlns:xlink="http://www.w3.org/1999/xlink" x="0px" y="0px"
	 viewBox="0 0 181 39" style="enable-background:new 0 0 181 39;" xml:space="preserve">
<g id="layer1_1_">
	<g>
		<path d="M13.4,38.8C6.5,38,2.2,34.9,0.6,29.5C0,27.4,0,27.4-0.1,13.6l-0.1-13h4.8h4.8l0,12.7c0,11.7,0.1,12.7,0.3,13.5
			c0.7,2.4,1.9,3.6,4,4.3c1.1,0.3,4.1,0.3,5.2,0c2.3-0.7,3.5-2,4.1-4.5c0.2-0.8,0.2-1.9,0.3-13.4l0.1-12.5h4.8h4.8L33,13.8
			C33,27,33,27,32.7,28.3c-0.6,2.6-1.6,4.5-3.1,6.2c-2,2.1-4.7,3.5-8.4,4.1C19.5,38.9,15.1,39,13.4,38.8z"/>
		<path d="M130.5,38.4c-2.5-0.3-5.9-1.1-8.5-2.1c-0.6-0.2-1.2-0.5-1.3-0.6c-0.1-0.1-0.2-1.6-0.3-3.4c-0.1-1.8-0.2-3.7-0.2-4.3
			l-0.1-1.1h0.5c0.3,0,0.6,0.1,1,0.4c1.7,1.3,4.4,2.8,6.6,3.5c2.1,0.7,3.3,0.9,5.5,1c3.3,0.1,5.2-0.4,6.4-1.6
			c1.3-1.4,0.9-3.4-0.9-4.6c-0.9-0.6-1.9-0.9-4.6-1.5c-4.1-0.9-4.5-1-5.9-1.4c-5-1.6-7.6-4-8.7-7.9c-0.3-0.9-0.3-1.5-0.4-3
			c-0.1-2.3,0.1-3.3,1-5c0.5-1,0.8-1.4,1.8-2.4c3.1-3.1,7.2-4.4,13.1-4.2c3.9,0.1,7.9,0.9,11,2.1c0.8,0.3,0.9,0.4,0.9,0.7
			c0,0.2,0.1,1.8,0.2,3.6c0.1,1.8,0.2,3.6,0.2,4c0,0.7,0,0.7-0.4,0.7c-0.3,0-0.7-0.2-1.5-0.8c-2-1.4-4.8-2.7-7.2-3.2
			c-1.5-0.3-4.1-0.5-5.4-0.3c-1.4,0.2-2.7,0.7-3.4,1.3c-0.6,0.5-1.1,1.5-1.1,2.2c0,0.8,0.4,1.7,0.9,2.1c0.9,0.9,1.9,1.2,6.4,2.2
			c5.3,1.2,8,2.2,10.1,3.8c1.8,1.3,2.9,3,3.5,5.2c0.2,0.9,0.3,1.4,0.3,3.2c0,2.2,0,2.2-0.4,3.4c-1.5,4.2-5.2,6.9-10.7,8
			C137.4,38.5,132.3,38.6,130.5,38.4z"/>
		<path d="M49.7,19.3V0.6l9.5,0.1c11.2,0.1,11,0.1,13.8,1.4c1.4,0.6,2.9,2.1,3.4,3.2c1.2,2.5,1.2,5.4,0,7.9
			c-0.7,1.3-2.2,2.9-3.4,3.6c-0.5,0.2-0.8,0.5-0.8,0.5c0,0.1,0.2,0.2,0.6,0.2c3,0.8,5.2,2.6,6.2,5c1,2.4,0.9,5.8-0.1,8.3
			c-1.5,3.6-5,6-9.6,6.8c-1.1,0.2-2.7,0.2-10.4,0.3L49.7,38V19.3z M66.7,30.9c1.7-0.5,2.7-1.2,3.3-2.4c0.3-0.7,0.4-0.9,0.4-2.2
			c0-2.6-0.7-3.6-3-4.3c-0.6-0.2-1.3-0.2-4.6-0.3l-3.9-0.1v4.8v4.8l3.6-0.1C65,31.1,66.1,31,66.7,30.9z M65.1,15.1
			c2.2-0.5,3.2-1.8,3-4.2c-0.1-0.9-0.1-1.2-0.5-1.8c-0.8-1.5-1.9-1.8-6.1-1.8h-2.8v4v4l2.8-0.1C63.2,15.3,64.8,15.1,65.1,15.1z"/>
		<path d="M81.6,36.9c0.2-0.6,1.5-4.3,2.9-8.3c1.4-4,4.1-11.9,6.1-17.6l3.6-10.4l5.2,0l5.2,0l6.4,18.5c3.6,10.2,6.4,18.6,6.4,18.6
			c0,0.1-2.1,0.1-4.7,0.1l-4.7,0l-1.5-4.7c-0.8-2.6-2.8-8.8-4.4-13.7c-1.6-4.9-2.9-9-3-9.1c-0.1-0.1-0.3,0.6-0.6,1.4
			c-0.3,0.8-1.6,4.9-2.9,9.1c-2.5,7.6-4.1,12.6-5,15.5l-0.5,1.5h-4.6h-4.5L81.6,36.9z"/>
		<path d="M155.5,19.3V0.6h12.7h12.7v3.6v3.6h-8.1h-8.1v3.7v3.7h7.6h7.6v3.6v3.6h-7.6h-7.6v4.3v4.3h8.1h8.1v3.6v3.6h-12.7h-12.7
			V19.3z"/>
	</g>
</g>
</svg>
